<svg width="1095" height="187" viewBox="0 0 1095 187" fill="none" xmlns="http://www.w3.org/2000/svg">
<path d="M556.363 145.4C546.497 145.4 537.963 143.067 530.763 138.4C523.563 133.6 518.03 127.133 514.163 119C510.297 110.867 508.363 101.867 508.363 92.0001C508.363 82.0001 510.497 73.0001 514.763 65.0001C519.03 56.8668 525.163 50.4668 533.163 45.8001C541.163 41.0001 550.763 38.6001 561.963 38.6001C572.763 38.6001 582.03 40.9334 589.763 45.6001C597.497 50.2668 603.43 56.6001 607.563 64.6001C611.83 72.6001 613.963 81.5334 613.963 91.4001V143H595.363V122.2H594.963C592.963 126.067 590.23 129.8 586.763 133.4C583.43 136.867 579.23 139.733 574.163 142C569.097 144.267 563.163 145.4 556.363 145.4ZM561.163 129.6C567.83 129.6 573.697 128 578.763 124.8C583.963 121.467 587.963 116.933 590.763 111.2C593.697 105.333 595.163 98.8001 595.163 91.6001C595.163 84.5334 593.763 78.2001 590.963 72.6001C588.297 67.0001 584.43 62.6001 579.363 59.4001C574.297 56.0668 568.363 54.4001 561.563 54.4001C554.363 54.4001 548.163 56.0668 542.963 59.4001C537.897 62.7334 533.963 67.2668 531.163 73.0001C528.497 78.6001 527.163 85.0001 527.163 92.2001C527.163 99.1334 528.497 105.467 531.163 111.2C533.83 116.8 537.697 121.267 542.763 124.6C547.83 127.933 553.963 129.6 561.163 129.6Z" fill="white"/>
<path d="M389.549 143V84.0001C389.549 74.9334 391.549 67.0001 395.549 60.2001C399.683 53.4001 405.349 48.1334 412.549 44.4001C419.749 40.5334 427.949 38.6001 437.149 38.6001C446.483 38.6001 454.683 40.5334 461.749 44.4001C468.949 48.1334 474.549 53.4001 478.549 60.2001C482.683 67.0001 484.749 74.9334 484.749 84.0001V143H466.349V84.2001C466.349 78.0668 464.949 72.8001 462.149 68.4001C459.483 63.8668 455.883 60.4001 451.349 58.0001C446.949 55.6001 442.216 54.4001 437.149 54.4001C432.083 54.4001 427.283 55.6001 422.749 58.0001C418.349 60.4001 414.749 63.8668 411.949 68.4001C409.283 72.8001 407.949 78.0668 407.949 84.2001V143H389.549Z" fill="white"/>
<path d="M302.652 145.4C292.786 145.4 284.252 143.067 277.052 138.4C269.852 133.6 264.319 127.133 260.452 119C256.586 110.867 254.652 101.867 254.652 92.0001C254.652 82.0001 256.786 73.0001 261.052 65.0001C265.319 56.8668 271.452 50.4668 279.452 45.8001C287.452 41.0001 297.052 38.6001 308.252 38.6001C319.052 38.6001 328.319 40.9334 336.052 45.6001C343.786 50.2668 349.719 56.6001 353.852 64.6001C358.119 72.6001 360.252 81.5334 360.252 91.4001V143H341.652V122.2H341.252C339.252 126.067 336.519 129.8 333.052 133.4C329.719 136.867 325.519 139.733 320.452 142C315.386 144.267 309.452 145.4 302.652 145.4ZM307.452 129.6C314.119 129.6 319.986 128 325.052 124.8C330.252 121.467 334.252 116.933 337.052 111.2C339.986 105.333 341.452 98.8001 341.452 91.6001C341.452 84.5334 340.052 78.2001 337.252 72.6001C334.586 67.0001 330.719 62.6001 325.652 59.4001C320.586 56.0668 314.652 54.4001 307.852 54.4001C300.652 54.4001 294.452 56.0668 289.252 59.4001C284.186 62.7334 280.252 67.2668 277.452 73.0001C274.786 78.6001 273.452 85.0001 273.452 92.2001C273.452 99.1334 274.786 105.467 277.452 111.2C280.119 116.8 283.986 121.267 289.052 124.6C294.119 127.933 300.252 129.6 307.452 129.6Z" fill="white"/>
<path d="M153.384 143V127.2H202.184C205.384 127.2 208.117 126.533 210.384 125.2C212.784 123.733 214.584 121.867 215.784 119.6C216.984 117.333 217.584 114.933 217.584 112.4C217.584 110 217.05 107.8 215.984 105.8C214.917 103.667 213.25 102 210.984 100.8C208.85 99.4668 206.25 98.8001 203.184 98.8001H182.584C176.05 98.8001 170.317 97.7335 165.384 95.6001C160.584 93.3335 156.784 90.0668 153.984 85.8001C151.317 81.5335 149.984 76.3335 149.984 70.2001C149.984 65.0001 151.25 60.2001 153.784 55.8001C156.317 51.4001 159.85 47.8668 164.384 45.2001C168.917 42.4001 174.117 41.0001 179.984 41.0001H226.984V56.8001H181.784C177.65 56.8001 174.384 58.0668 171.984 60.6001C169.584 63.1335 168.384 66.1335 168.384 69.6001C168.384 72.9335 169.584 75.8668 171.984 78.4001C174.517 80.8001 178.05 82.0001 182.584 82.0001H202.184C209.517 82.0001 215.65 83.2001 220.584 85.6001C225.65 87.8668 229.45 91.2001 231.984 95.6001C234.65 100 235.984 105.4 235.984 111.8C235.984 117.267 234.65 122.4 231.984 127.2C229.317 131.867 225.584 135.667 220.784 138.6C216.117 141.533 210.65 143 204.384 143H153.384Z" fill="white"/>
<path d="M0.739868 143L48.3399 16.4001C50.4732 10.9334 53.4065 6.93343 57.1399 4.40009C60.8732 1.86676 65.2065 0.600098 70.1399 0.600098C75.0732 0.600098 79.4065 1.86676 83.1399 4.40009C87.0065 6.80009 89.9399 10.7334 91.9399 16.2001L139.74 143H118.74L106.54 109.2H33.3399L20.9399 143H0.739868ZM39.3399 92.2001H100.74L75.7399 22.8001C75.0732 21.0668 74.3399 19.7334 73.5399 18.8001C72.7399 17.8668 71.6065 17.4001 70.1399 17.4001C68.8065 17.4001 67.7399 17.8668 66.9399 18.8001C66.1399 19.7334 65.4732 21.0668 64.9399 22.8001L39.3399 92.2001Z" fill="white"/>
<path d="M1069.67 143C1060.6 143 1053.47 140.4 1048.27 135.2C1043.2 130 1040.67 122.933 1040.67 114V15.4H1059.07V112.8C1059.07 117.2 1060.27 120.733 1062.67 123.4C1065.2 125.933 1068.67 127.2 1073.07 127.2H1093.67V143H1069.67ZM1023.07 56.8V41H1094.07V56.8H1023.07Z" fill="white"/>
<path d="M852.876 38.6C860.609 38.6 867.676 39.8666 874.076 42.4C880.476 44.8 886.009 48.4 890.676 53.2C895.342 58 898.942 63.8 901.476 70.6C904.142 77.2666 905.476 84.8 905.476 93.2C905.476 103.733 903.276 112.933 898.876 120.8C894.609 128.667 888.742 134.733 881.276 139C873.809 143.267 865.342 145.4 855.876 145.4C850.676 145.4 845.676 144.533 840.876 142.8C836.209 141.067 832.009 138.667 828.276 135.6C824.676 132.4 821.742 128.8 819.476 124.8H819.076V187H800.676V92.6C800.676 81.1333 802.942 71.4 807.476 63.4C812.142 55.4 818.409 49.2666 826.276 45C834.142 40.7333 843.009 38.6 852.876 38.6ZM852.876 54.4C846.742 54.4 841.076 55.9333 835.876 59C830.809 62.0666 826.742 66.4 823.676 72C820.742 77.6 819.276 84.2 819.276 91.8C819.276 99.5333 820.742 106.267 823.676 112C826.742 117.6 830.809 121.933 835.876 125C841.076 128.067 846.809 129.6 853.076 129.6C859.476 129.6 865.209 128 870.276 124.8C875.342 121.6 879.342 117.2 882.276 111.6C885.342 106 886.876 99.4666 886.876 92C886.876 84.2666 885.342 77.6 882.276 72C879.209 66.4 875.076 62.0666 869.876 59C864.809 55.9333 859.142 54.4 852.876 54.4Z" fill="white"/>
<path d="M675.885 143V126H736.485C741.152 126 745.152 124.933 748.485 122.8C751.818 120.533 754.418 117.667 756.285 114.2C758.152 110.733 759.085 107.067 759.085 103.2C759.085 99.2 758.152 95.5333 756.285 92.2C754.552 88.7333 752.018 86 748.685 84C745.485 81.8667 741.552 80.8 736.885 80.8H710.485C702.618 80.8 695.685 79.2 689.685 76C683.685 72.6667 678.952 68.1333 675.485 62.4C672.152 56.5333 670.485 49.9333 670.485 42.6C670.485 35.1333 672.085 28.4 675.285 22.4C678.618 16.4 683.218 11.6667 689.085 8.2C695.085 4.73333 701.952 3 709.685 3H769.085V20H711.485C707.085 20 703.218 21.0667 699.885 23.2C696.552 25.2 694.018 27.8667 692.285 31.2C690.552 34.4 689.685 37.8667 689.685 41.6C689.685 45.2 690.485 48.6667 692.085 52C693.818 55.2 696.285 57.8 699.485 59.8C702.818 61.8 706.618 62.8 710.885 62.8H737.885C746.285 62.8 753.485 64.4667 759.485 67.8C765.485 71.1333 770.085 75.6667 773.285 81.4C776.485 87.1333 778.085 93.6667 778.085 101C778.085 109.133 776.418 116.4 773.085 122.8C769.885 129.067 765.285 134 759.285 137.6C753.285 141.2 746.418 143 738.685 143H675.885Z" fill="white"/>
<circle cx="967" cy="91" r="48" fill="white"/>
</svg>
